<?xml version="1.0" encoding="utf-8"?>
<!-- Generator: Adobe Illustrator 16.0.0, SVG Export Plug-In . SVG Version: 6.00 Build 0)  -->
<!DOCTYPE svg PUBLIC "-//W3C//DTD SVG 1.1//EN" "http://www.w3.org/Graphics/SVG/1.1/DTD/svg11.dtd">
<svg version="1.1" id="Layer_1" xmlns="http://www.w3.org/2000/svg" xmlns:xlink="http://www.w3.org/1999/xlink" x="0px" y="0px"
	 width="1500px" height="1300px" viewBox="0 0 1500 1300" enable-background="new 0 0 1500 1300" xml:space="preserve">
<polygon fill="#1E4C72" points="377,1300.713 2,650.715 377,0.713 1127,0.713 1502,650.715 1127,1300.713 "/>
<g>
	<path fill="#FFFFFF" d="M1032.908,783.938c15.805,31.545,86.873,197.314,86.873,221.08c0,130.045-173.697,130.045-173.697,0
		C946.084,981.253,1017.168,807.606,1032.908,783.938z"/>
	<path fill="#FFFFFF" d="M1135.52,695.745c0-17.938,0-47.814,0-100.268c0-63.537-57.689-118.451-134.156-118.451
		c0,0-0.447,0-178.652,0l-0.99-55.74c0-16.021-13.047-29.102-29.117-29.102h-69.862v-35.773c6.062-3.584,11.082-8.076,15.311-13.576
		c20.975,0,63.42,0,148.756,0c9.959,12.768,24.658,21.637,42.051,21.637c29.629,0,53.742-24.031,53.742-53.727
		c-0.018-29.744-24.113-53.824-53.742-53.824c-17.789,0-32.867,9.381-42.611,22.758c-23.502,0-67.484,0-147.486,0
		c-9.909-13.377-24.89-22.758-42.71-22.758c-17.738,0-32.883,9.381-42.61,22.758c-45.65,0-99.756,0-162.846,0
		c-9.761-13.377-24.79-22.758-42.512-22.758c-29.729,0-53.792,24.08-53.792,53.809c0,29.711,24.063,53.725,53.792,53.725
		c17.275,0,32.041-8.852,41.769-21.635c26.937,0,75.973,0,164.232,0c4.294,5.615,9.414,10.189,15.575,13.625v35.725h-74.156
		c-16.021,0-29.068,13.08-29.068,29.1v55.742c-170.522,0-464.223,0-464.223,0L2,650.706c69.92,0,387.652,0,588.814,0
		c23.667,47.482,55.229,71.002,102.612,71.002c47.351,0,86.824-23.502,110.507-71.002c0,0,0,0,86.855,0
		c25.93,0,35.51,16.682,38.268,48.672c-7.598,5.17-12.832,13.576-12.832,23.502c0,16.07,13.047,29.117,29.066,29.117h180.254
		c16.053,0,29.102-13.047,29.102-29.117C1154.678,710.312,1146.719,699.823,1135.52,695.745z"/>
</g>
</svg>
