<?xml version="1.0" encoding="utf-8"?>
<!-- Generator: Adobe Illustrator 16.0.0, SVG Export Plug-In . SVG Version: 6.00 Build 0)  -->
<!DOCTYPE svg PUBLIC "-//W3C//DTD SVG 1.1//EN" "http://www.w3.org/Graphics/SVG/1.1/DTD/svg11.dtd">
<svg version="1.1" id="Layer_1" xmlns="http://www.w3.org/2000/svg" xmlns:xlink="http://www.w3.org/1999/xlink" x="0px" y="0px"
	 width="747.369px" height="710px" viewBox="376.315 295 747.369 710" enable-background="new 376.315 295 747.369 710"
	 xml:space="preserve">
<g id="Your_Icon">
	<path fill="#FFFFFF" d="M923.493,444.473v480.47h-40.032L884.525,295H644.292l-1.07,629.943h-40.036V511.221h-226.87V1005h747.369
		V444.473H923.493L923.493,444.473z M963.525,497.866h120.118v146.807H963.525V497.866z M963.525,698.053h120.118v146.802H963.525
		V698.053z M683.259,337.718h160.162v66.734H683.259V337.718z M683.259,471.169h160.162v66.726H683.259V471.169z M683.259,604.643
		h160.162v66.728H683.259V604.643z M683.259,738.094h160.162v66.736H683.259V738.094z M416.351,564.59h53.387v93.423h-53.387V564.59
		z M509.772,564.59h53.385v93.423h-53.385V564.59L509.772,564.59z M416.351,724.737h53.387v93.421h-53.387V724.737z
		 M509.772,724.737h53.385v93.421h-53.385V724.737L509.772,724.737z"/>
</g>
</svg>
